<svg xmlns="http://www.w3.org/2000/svg" xmlns:xlink="http://www.w3.org/1999/xlink" version="1.1" x="0px" y="0px" viewBox="0 0 48 48" style="enable-background:new 0 0 48 48;max-width:100%" xml:space="preserve" height="100%"><style type="text/css" style="" fill="currentColor">
	.st0{fill:#010101;}
</style><path class="st0" d="M46.2,11.3h-0.9c-1,0-1.8,0.8-1.8,1.8v4.2c0,0.9,0.6,1.6,1.4,1.8V20c0,0.8-0.7,1.5-1.5,1.5H42V2.8  C42,1.2,40.8,0,39.2,0H8.8C7.2,0,6,1.2,6,2.8v18.7H4.7c-0.8,0-1.5-0.7-1.5-1.5v-0.8c0.8-0.2,1.4-0.9,1.4-1.8v-4.2  c0-1-0.8-1.8-1.8-1.8H1.8c-1,0-1.8,0.8-1.8,1.8v4.2c0,0.9,0.6,1.6,1.4,1.8V20c0,1.8,1.5,3.3,3.3,3.3H6v15.3c0,1.5,1.2,2.8,2.8,2.8  h1.1V46c0,1.1,0.9,2,2,2H15c1.1,0,2-0.9,2-2v-4.7h14V46c0,1.1,0.9,2,2,2h3.1c1.1,0,2-0.9,2-2v-4.7h1.1c1.5,0,2.8-1.2,2.8-2.8V23.3  h1.3c1.8,0,3.3-1.5,3.3-3.3v-0.8c0.8-0.2,1.4-0.9,1.4-1.8v-4.2C48,12.2,47.2,11.3,46.2,11.3z M9.7,3.7h12.9V24H9.7V3.7z M13.2,38.1  c-1.8,0-3.3-1.5-3.3-3.3s1.5-3.3,3.3-3.3c1.8,0,3.3,1.5,3.3,3.3S15,38.1,13.2,38.1z M21.1,37.1c0,0.5-0.4,0.9-0.9,0.9  c-0.5,0-0.9-0.4-0.9-0.9v-7.9c0-0.5,0.4-0.9,0.9-0.9c0.5,0,0.9,0.4,0.9,0.9V37.1z M24.9,37.1c0,0.5-0.4,0.9-0.9,0.9  s-0.9-0.4-0.9-0.9v-7.9c0-0.5,0.4-0.9,0.9-0.9s0.9,0.4,0.9,0.9V37.1z M28.8,37.1c0,0.5-0.4,0.9-0.9,0.9c-0.5,0-0.9-0.4-0.9-0.9v-7.9  c0-0.5,0.4-0.9,0.9-0.9c0.5,0,0.9,0.4,0.9,0.9V37.1z M31.5,34.7c0-1.8,1.5-3.3,3.3-3.3s3.3,1.5,3.3,3.3s-1.5,3.3-3.3,3.3  S31.5,36.6,31.5,34.7z M38.3,24H25.4V3.7h12.9V24z" style="" fill="currentColor"></path></svg>