<svg xmlns="http://www.w3.org/2000/svg" xmlns:xlink="http://www.w3.org/1999/xlink" version="1.1" x="0px" y="0px" viewBox="0 0 100 100" enable-background="new 0 0 100 100" xml:space="preserve" style="max-width:100%" height="100%"><g style="" fill="currentColor"><rect x="-143.306" y="-2.593" width="137.037" height="73.333" style="" fill="currentColor"></rect><rect x="-1.083" y="-29.259" width="74.074" height="22.222" style="" fill="currentColor"></rect><text transform="matrix(1 0 0 1 47.8059 -17.0371)" font-family="'Helvetica'" font-size="1.7778" style="" fill="currentColor">http://thenounproject.com</text><text transform="matrix(1 0 0 1 4.2249 -20.7407)" font-family="'Helvetica-Bold'" font-size="4.5613" style="" fill="currentColor">The Noun Project</text><text transform="matrix(1 0 0 1 5.055 -17.1851)" font-family="'Helvetica-Bold'" font-size="2.963" style="" fill="currentColor">Icon Template</text><text transform="matrix(1 0 0 1 -133.3054 5.1856)" font-family="'Helvetica-Bold'" font-size="4.5613" style="" fill="currentColor">Reminders</text><line fill="currentColor" stroke="#FFFFFF" stroke-miterlimit="10" x1="4.843" y1="-13.333" x2="12.25" y2="-13.333" style=""></line><line fill="currentColor" stroke="#FFFFFF" stroke-miterlimit="10" x1="-133.676" y1="9.63" x2="-121.083" y2="9.63" style=""></line><g style="" fill="currentColor"><g style="" fill="currentColor"><g style="" fill="currentColor"><rect x="-127.603" y="20.606" width="6.46" height="6.401" style="" fill="currentColor"></rect><path d="M-122.902,28.75h3.516v-3.484h-3.516V28.75z M-119.058,29.073h-4.17V24.94h4.17V29.073L-119.058,29.073z       M-124.21,30.046h6.133V23.97h-6.133V30.046L-124.21,30.046z M-117.75,30.37h-6.787v-6.725h6.787V30.37L-117.75,30.37z" style="" fill="currentColor"></path><polygon points="-124.157,30.099 -124.263,29.993 -118.13,23.916 -118.025,24.021     " style="" fill="currentColor"></polygon></g></g></g><rect x="-133.676" y="40.37" fill="none" width="25.926" height="24.074" style=""></rect><text transform="matrix(1 0 0 1 -133.6756 41.9688)" font-family="'Helvetica-Bold'" font-size="2.2222" style="" fill="currentColor">Strokes</text><text transform="matrix(1 0 0 1 -133.6756 45.6719)" font-family="'Helvetica'" font-size="1.7778" style="" fill="currentColor">Try to keep strokes at 4px</text><text transform="matrix(1 0 0 1 -133.6756 49.376)" font-family="'Helvetica'" font-size="1.7778" style="" fill="currentColor">Minimum stroke weight is 2px</text><text transform="matrix(1 0 0 1 -133.6756 52.709)" font-family="'Helvetica'" font-size="1.7778" style="" fill="currentColor">For thicker strokes use even </text><text transform="matrix(1 0 0 1 -133.6756 54.9317)" font-family="'Helvetica'" font-size="1.7778" style="" fill="currentColor">numbers: 6px, 8px etc.</text><text transform="matrix(1 0 0 1 -133.6756 58.2646)" font-family="'Helvetica-Bold'" font-size="1.7778" style="" fill="currentColor">Remember to expand strokes </text><text transform="matrix(1 0 0 1 -133.6756 60.4868)" font-family="'Helvetica-Bold'" font-size="1.7778" style="" fill="currentColor">before saving as an SVG </text><rect x="-102.194" y="40.37" fill="none" width="25.926" height="24.074" style=""></rect><text transform="matrix(1 0 0 1 -102.1941 41.9688)" font-family="'Helvetica-Bold'" font-size="2.2222" style="" fill="currentColor">Size</text><text transform="matrix(1 0 0 1 -102.1941 45.6719)" font-family="'Helvetica'" font-size="1.7778" style="" fill="currentColor">Cannot be wider or taller than </text><text transform="matrix(1 0 0 1 -102.1941 48.2646)" font-family="'Helvetica'" font-size="1.7778" style="" fill="currentColor">100px (artboard size)</text><text transform="matrix(1 0 0 1 -102.1941 51.9688)" font-family="'Helvetica'" font-size="1.7778" style="" fill="currentColor">Scale your icon to fill as much of </text><text transform="matrix(1 0 0 1 -102.1941 54.1905)" font-family="'Helvetica'" font-size="1.7778" style="" fill="currentColor">the Safe Area as possible (within </text><text transform="matrix(1 0 0 1 -102.1941 56.4131)" font-family="'Helvetica'" font-size="1.7778" style="" fill="currentColor">the guides)</text><rect x="-70.713" y="40.37" fill="none" width="25.926" height="24.074" style=""></rect><text transform="matrix(1 0 0 1 -70.7127 41.9688)" font-family="'Helvetica-Bold'" font-size="2.2222" style="" fill="currentColor">Ungroup</text><text transform="matrix(1 0 0 1 -70.7127 45.6719)" font-family="'Helvetica'" font-size="1.7778" style="" fill="currentColor">If your design has more than one </text><text transform="matrix(1 0 0 1 -70.7127 47.8945)" font-family="'Helvetica'" font-size="1.7778" style="" fill="currentColor">shape, make sure to ungroup.</text><rect x="-38.12" y="40.37" fill="none" width="25.926" height="24.074" style=""></rect><text transform="matrix(1 0 0 1 -38.1199 41.9688)" font-family="'Helvetica-Bold'" font-size="2.2222" style="" fill="currentColor">Save as</text><text transform="matrix(1 0 0 1 -38.1199 45.6719)" font-family="'Helvetica'" font-size="1.7778" style="" fill="currentColor">Save as .SVG and make sure </text><text transform="matrix(1 0 0 1 -38.1199 47.8945)" font-family="'Helvetica'" font-size="1.7778" style="" fill="currentColor">“Use Artboards” is checked.</text><text transform="matrix(1.0074 0 0 1 -94.0776 20.0698)" font-family="'Helvetica'" font-size="1.906" style="" fill="currentColor">100px</text><text transform="matrix(1.0074 0 0 1 -31.4541 26.2964)" font-family="'Helvetica-Bold'" font-size="3.812" style="" fill="currentColor">.SVG</text><rect x="-94.797" y="23.196" width="7.601" height="7.544" style="" fill="currentColor"></rect><rect x="-94.77" y="20.938" width="0.387" height="1.731" style="" fill="currentColor"></rect><rect x="-87.611" y="20.938" width="0.387" height="1.731" style="" fill="currentColor"></rect><rect x="-95.157" y="21.361" width="8.321" height="0.424" style="" fill="currentColor"></rect><g style="" fill="currentColor"><rect x="-63.161" y="22.477" width="7.633" height="7.523" style="" fill="currentColor"></rect><rect x="-57.979" y="18.672" width="2.45" height="2.416" style="" fill="currentColor"></rect></g><rect x="-133.306" y="14.074" stroke="#FFFFFF" stroke-miterlimit="10" width="22.222" height="22.222" fill="currentColor" style=""></rect><rect x="-102.194" y="14.074" stroke="#FFFFFF" stroke-miterlimit="10" width="22.222" height="22.222" fill="currentColor" style=""></rect><rect x="-70.343" y="14.074" stroke="#FFFFFF" stroke-miterlimit="10" width="22.222" height="22.222" fill="currentColor" style=""></rect><rect x="-37.75" y="14.074" stroke="#FFFFFF" stroke-miterlimit="10" width="22.222" height="22.222" fill="currentColor" style=""></rect></g><text transform="matrix(1 0 0 1 14.2599 117.4443)" font-family="'HelveticaNeue-Bold'" font-size="3.7037" style="" fill="currentColor">Created by Araz Murat Ak</text><text transform="matrix(1 0 0 1 14.2599 121.1484)" font-family="'HelveticaNeue-Bold'" font-size="3.7037" style="" fill="currentColor">from the Noun Project</text><path d="M81.032,50c0,1.776-1.439,3.215-3.215,3.215H17.795c-1.776,0-3.215-1.439-3.215-3.215l0,0c0-1.776,1.439-3.215,3.215-3.215  h60.023C79.593,46.785,81.032,48.224,81.032,50L81.032,50z" style="" fill="currentColor"></path><path d="M80.091,52.273c-1.256,1.256-3.291,1.256-4.547,0L65.435,42.165c-1.256-1.256-1.256-3.291,0-4.547l0,0  c1.256-1.256,3.291-1.256,4.547,0l10.109,10.109C81.346,48.982,81.346,51.018,80.091,52.273L80.091,52.273z" style="" fill="currentColor"></path><path d="M65.435,62.382c-1.256-1.256-1.256-3.291,0-4.547l10.109-10.109c1.256-1.256,3.291-1.256,4.547,0l0,0  c1.256,1.256,1.256,3.291,0,4.547L69.982,62.382C68.726,63.638,66.691,63.638,65.435,62.382L65.435,62.382z" style="" fill="currentColor"></path></svg>