<svg xmlns="http://www.w3.org/2000/svg" xmlns:xlink="http://www.w3.org/1999/xlink" version="1.1" x="0px" y="0px" viewBox="0 0 48 48" style="enable-background:new 0 0 48 48;max-width:100%" xml:space="preserve" height="100%"><style type="text/css" style="" fill="currentColor">
	.st0{fill:#010101;}
</style><g style="" fill="currentColor"><rect x="15.1" y="32.3" width="17.8" height="8.1" style="" fill="currentColor"></rect><path d="M32.5,9.2V3.8c0-2.1-1.7-3.8-3.8-3.8h-9.4c-2.1,0-3.8,1.7-3.8,3.8v5.4c-4.9,2.9-8.2,8.2-8.2,14.3v19.1c0,3,2.4,5.4,5.4,5.4   h22.5c3,0,5.4-2.4,5.4-5.4V23.5C40.6,17.4,37.4,12.1,32.5,9.2z M18.8,3.8c0-0.3,0.2-0.5,0.5-0.5h9.4c0.3,0,0.5,0.2,0.5,0.5v3.9   c-1.6-0.5-3.4-0.9-5.2-0.9c-1.8,0-3.6,0.3-5.2,0.9V3.8z M35,41.5c0,0.6-0.5,1.1-1.1,1.1H14c-0.6,0-1.1-0.5-1.1-1.1V31.2   c0-0.6,0.5-1.1,1.1-1.1H34c0.6,0,1.1,0.5,1.1,1.1V41.5z M34.7,21.4h-20c-0.6,0-1.1-0.5-1.1-1.1s0.5-1.1,1.1-1.1h20   c0.6,0,1.1,0.5,1.1,1.1S35.3,21.4,34.7,21.4z" style="" fill="currentColor"></path><rect x="42.8" y="25.6" width="5.2" height="15.6" style="" fill="currentColor"></rect><rect y="25.6" width="5.2" height="15.6" style="" fill="currentColor"></rect><path d="M11.8,9.2l-0.6-2.5C11,5.5,9.9,4.6,8.6,4.6c-1.7,0-3,1.6-2.6,3.3l1.5,6.6C8.6,12.5,10,10.7,11.8,9.2z" style="" fill="currentColor"></path><path d="M39.4,4.6L39.4,4.6c-1.3,0-2.3,0.9-2.6,2.1l-0.6,2.5c1.7,1.5,3.2,3.3,4.3,5.3L42,7.9C42.4,6.2,41.1,4.6,39.4,4.6z" style="" fill="currentColor"></path></g></svg>