<svg xmlns="http://www.w3.org/2000/svg" xmlns:xlink="http://www.w3.org/1999/xlink" version="1.1" x="0px" y="0px" viewBox="0 0 48 48" style="enable-background:new 0 0 48 48;max-width:100%" xml:space="preserve" height="100%"><style type="text/css" style="" fill="currentColor">
	.st0{fill:#010101;}
</style><path d="M47.4,24.6c-0.8-0.8-2-0.8-2.8,0L30.9,38.3H17V13h14V9L15.5,0L0,9v4h14v25.3H2c-1.1,0-2,0.9-2,2s0.9,2,2,2h5.4l-4,4  c-0.4,0.4-0.4,1,0,1.4s1,0.4,1.4,0l5.4-5.4h15l5.4,5.4c0.4,0.4,1,0.4,1.4,0s0.4-1,0-1.4l-4-4h3.7c0.5,0,1-0.2,1.4-0.6l14.3-14.3  C48.2,26.6,48.2,25.4,47.4,24.6z" style="" fill="currentColor"></path></svg>