<svg xmlns="http://www.w3.org/2000/svg" xmlns:xlink="http://www.w3.org/1999/xlink" version="1.1" x="0px" y="0px" viewBox="0 0 48 48" style="enable-background:new 0 0 48 48;max-width:100%" xml:space="preserve" height="100%"><style type="text/css" style="" fill="currentColor">
	.st0{fill:#010101;}
</style><g style="" fill="currentColor"><polygon points="0,41 14.3,48 14.3,19.4 0,12.4  " style="" fill="currentColor"></polygon><path d="M16,19.4V48l14.3-7V24.2c-1.8-3-3.6-6.4-4.8-9.4L16,19.4z" style="" fill="currentColor"></path><path d="M45.5,18.3c-2.8,5.7-9.2,15.1-9.2,15.1L32,27v14l16,7V19.4L45.5,18.3z" style="" fill="currentColor"></path><path d="M46.2,9.9c0-5.5-4.5-9.9-9.9-9.9c-5.5,0-9.9,4.5-9.9,9.9c0,5.5,9.9,19.9,9.9,19.9S46.2,15.4,46.2,9.9z M29.3,9.9   c0-3.8,3.1-6.9,6.9-6.9s6.9,3.1,6.9,6.9s-3.1,6.9-6.9,6.9S29.3,13.8,29.3,9.9z" style="" fill="currentColor"></path></g></svg>