<svg xmlns="http://www.w3.org/2000/svg" xmlns:xlink="http://www.w3.org/1999/xlink" version="1.1" x="0px" y="0px" viewBox="0 0 48 48" style="enable-background:new 0 0 48 48;max-width:100%" xml:space="preserve" height="100%"><style type="text/css" style="" fill="currentColor">
	.st0{fill:#010101;}
</style><g style="" fill="currentColor"><path d="M9.7,0C6.1,0,3.2,4.2,3.2,9.4c0,4.5,2.2,8.2,5.1,9.2v9.4c-0.7,0.4-1.1,1.2-1.1,2.1v15.5c0,1.4,1.1,2.5,2.5,2.5   s2.5-1.1,2.5-2.5V30c0-0.9-0.4-1.6-1.1-2.1v-9.4c2.9-0.9,5.1-4.7,5.1-9.2C16.1,4.2,13.2,0,9.7,0z" style="" fill="currentColor"></path><path d="M30.3,0C29.6,0,29,0.6,29,1.3v9.3c0,0.7-0.6,1.2-1.2,1.2c-0.7,0-1.2-0.6-1.2-1.2V1.3c0-0.7-0.6-1.3-1.3-1.3H25   c-0.7,0-1.3,0.6-1.3,1.3v9.3c0,0.7-0.6,1.2-1.2,1.2c-0.7,0-1.2-0.6-1.2-1.2V1.3c0-0.7-0.6-1.3-1.3-1.3s-1.3,0.6-1.3,1.3v10.7   c0,3.2,2.2,6,5.2,6.7v9.2c-0.7,0.4-1.1,1.2-1.1,2.1v15.5c0,1.4,1.1,2.5,2.5,2.5c1.4,0,2.5-1.1,2.5-2.5V30c0-0.9-0.4-1.6-1.1-2.1   v-9.2c2.9-0.6,5.2-3.3,5.2-6.4v-11C31.7,0.6,31.1,0,30.3,0z" style="" fill="currentColor"></path><path d="M36.3,16.5v13.2h8.6V0C39.5,3.8,36.3,9.9,36.3,16.5z" style="" fill="currentColor"></path><path d="M39.2,45.2c0,1.6,1.3,2.8,2.8,2.8s2.8-1.3,2.8-2.8V31.7h-5.6V45.2z" style="" fill="currentColor"></path></g></svg>