<svg xmlns="http://www.w3.org/2000/svg" xmlns:xlink="http://www.w3.org/1999/xlink" version="1.1" x="0px" y="0px" viewBox="0 0 48 48" style="enable-background:new 0 0 48 48;max-width:100%" xml:space="preserve" height="100%"><style type="text/css" style="" fill="currentColor">
	.st0{fill:#010101;}
</style><g style="" fill="currentColor"><path d="M45,11.6H34.2L32.6,8c-0.5-1.1-1.6-1.8-2.7-1.8H18.1c-1.2,0-2.3,0.7-2.7,1.8l-1.6,3.6h-4V9.2H5.3v2.4H3c-1.7,0-3,1.3-3,3   v24.1c0,1.7,1.3,3,3,3h42c1.7,0,3-1.3,3-3V14.6C48,13,46.7,11.6,45,11.6z M19.2,8.7h9.5c0.6,0,1,0.4,1,1s-0.4,1-1,1h-9.5   c-0.6,0-1-0.4-1-1S18.7,8.7,19.2,8.7z M24,38.1c-6.3,0-11.4-5.1-11.4-11.4S17.7,15.3,24,15.3c6.3,0,11.4,5.1,11.4,11.4   S30.3,38.1,24,38.1z M41.3,21c-1,0-1.9-0.8-1.9-1.9s0.8-1.9,1.9-1.9s1.9,0.8,1.9,1.9S42.3,21,41.3,21z" style="" fill="currentColor"></path><path d="M24,17.2c-5.2,0-9.5,4.3-9.5,9.5s4.3,9.5,9.5,9.5s9.5-4.3,9.5-9.5S29.2,17.2,24,17.2z M29.1,24.8c-0.4,0.4-1.5,0.2-2.3-0.6   c-0.8-0.8-1.1-1.8-0.6-2.3c0.4-0.4,1.5-0.2,2.3,0.6C29.3,23.3,29.6,24.3,29.1,24.8z" style="" fill="currentColor"></path></g></svg>