<svg xmlns="http://www.w3.org/2000/svg" xmlns:xlink="http://www.w3.org/1999/xlink" version="1.1" x="0px" y="0px" viewBox="0 0 48 48" style="enable-background:new 0 0 48 48;max-width:100%" xml:space="preserve" height="100%"><style type="text/css" style="" fill="currentColor">
	.st0{fill:#010101;}
</style><g style="" fill="currentColor"><rect x="5.4" y="0" width="7.2" height="3.2" style="" fill="currentColor"></rect><rect x="10" y="27.1" width="8" height="11.4" style="" fill="currentColor"></rect><path d="M12.6,13.8V5.2H5.4v8.6C2.2,15.2,0,18.4,0,22v23c0,1.7,1.3,3,3,3h12c1.7,0,3-1.3,3-3v-4.6H9c-0.6,0-1-0.4-1-1V26.1   c0-0.6,0.4-1,1-1h9v-3C18,18.4,15.7,15.2,12.6,13.8z" style="" fill="currentColor"></path><path d="M47.6,24.4c0.8-0.9,0.2-2.4-1.1-2.4H22.1c-1.2,0-1.9,1.5-1.1,2.4l11.5,13.2v7h-2.8V48h9.2v-3.4h-2.8v-7L47.6,24.4z    M31.1,27.6c-0.6-0.6-1.6-0.6-2.2,0c-0.6,0.6-1.6,0.6-2.2,0l-3-3.5H45l-3,3.5h0c-0.6,0.6-1.6,0.6-2.2,0c-0.6-0.6-1.6-0.6-2.2,0   c-0.6,0.6-1.6,0.6-2.2,0c-0.6-0.6-1.6-0.6-2.2,0C32.6,28.2,31.7,28.2,31.1,27.6z" style="" fill="currentColor"></path></g></svg>