<svg xmlns="http://www.w3.org/2000/svg" xmlns:xlink="http://www.w3.org/1999/xlink" version="1.1" x="0px" y="0px" viewBox="0 0 48 48" style="enable-background:new 0 0 48 48;max-width:100%" xml:space="preserve" height="100%"><style type="text/css" style="" fill="currentColor">
	.st0{fill:#010101;}
</style><g style="" fill="currentColor"><rect x="-2" y="6.2" transform="matrix(0.5 -0.866 0.866 0.5 -4.3645 10.3263)" width="17.5" height="5.5" style="" fill="currentColor"></rect><rect x="39.2" y="27.1" transform="matrix(0.5 -0.866 0.866 0.5 -4.3645 52.5668)" width="8.4" height="5.9" style="" fill="currentColor"></rect><path d="M14.3,5.3l-6.9,12l9.5,5.5c0.9-1.8,2.8-3,4.9-3c3.1,0,5.6,2.5,5.6,5.6c0,1.1-0.3,2.1-0.9,3l9,5.2l6.9-12L14.3,5.3z" style="" fill="currentColor"></path><path d="M25.4,25.4c0-2-1.6-3.6-3.6-3.6c-2,0-3.6,1.6-3.6,3.6c0,1.2,0.6,2.3,1.6,3L10,48h3.4l8.4-16.9L30.2,48h3.4l-9.8-19.6   C24.8,27.7,25.4,26.6,25.4,25.4z" style="" fill="currentColor"></path></g></svg>