<svg xmlns="http://www.w3.org/2000/svg" xmlns:xlink="http://www.w3.org/1999/xlink" version="1.1" x="0px" y="0px" viewBox="0 0 48 48" style="enable-background:new 0 0 48 48;max-width:100%" xml:space="preserve" height="100%"><style type="text/css" style="" fill="currentColor">
	.st0{fill:#010101;}
</style><g style="" fill="currentColor"><path d="M34.6,6.3c-0.2-0.7-0.8-1.2-1.5-1.2H14.9c-0.7,0-1.3,0.5-1.5,1.2l-1,4.3h-2.3v32.2h27.7V10.7h-2.3L34.6,6.3z M16.1,8.2   h15.9l0.6,2.5h-17L16.1,8.2z M28.5,25.6l-2.8,2.8c-0.6,0.6-2.4,1.6-4.2,0l-5.8-5.8c-1.2-1.2-1.2-3.1,0-4.2l2.8-2.8   c1.2-1.2,3.1-1.2,4.2,0l5.8,5.8C29.7,22.5,29.7,24.4,28.5,25.6z" style="" fill="currentColor"></path><path d="M0,13.7v26.2c0,1.7,1.3,3,3,3h5.2V10.7H3C1.3,10.7,0,12,0,13.7z" style="" fill="currentColor"></path><path d="M19.9,16.9l-2.8,2.8c-0.4,0.4-0.4,1,0,1.4l5.8,5.8c0.4,0.4,1,0.4,1.4,0l2.8-2.8c0.4-0.4,0.4-1,0-1.4l-5.8-5.8   C20.9,16.5,20.3,16.5,19.9,16.9z" style="" fill="currentColor"></path><path d="M45,10.7h-5.2v32.2H45c1.7,0,3-1.3,3-3V13.7C48,12,46.7,10.7,45,10.7z" style="" fill="currentColor"></path></g></svg>