<svg xmlns="http://www.w3.org/2000/svg" xmlns:xlink="http://www.w3.org/1999/xlink" version="1.1" x="0px" y="0px" viewBox="0 0 512 512" enable-background="new 0 0 512 512" xml:space="preserve" style="max-width:100%" height="100%"><g style="" fill="#14a9ee"><path d="M318.168,0H10.66v512h383.992V76.5L318.168,0z M319.996,32l42.656,42.664h-42.656V32z M31.996,490.656V21.336h266.656V96   h74.688v394.656H31.996z" style="" fill="#14a9ee"></path><path d="M319.996,373.344h-64c-5.891,0-10.664,4.766-10.664,10.656s4.773,10.656,10.664,10.656h64   c5.891,0,10.656-4.766,10.656-10.656S325.887,373.344,319.996,373.344z" style="" fill="#14a9ee"></path><path d="M319.996,192H85.332c-5.898,0-10.672,4.773-10.672,10.664s4.773,10.672,10.672,10.672h234.664   c5.891,0,10.656-4.781,10.656-10.672S325.887,192,319.996,192z" style="" fill="#14a9ee"></path><path d="M319.996,256H85.332c-5.898,0-10.672,4.773-10.672,10.664c0,5.898,4.773,10.68,10.672,10.68h234.664   c5.891,0,10.656-4.781,10.656-10.68C330.652,260.773,325.887,256,319.996,256z" style="" fill="#14a9ee"></path><path d="M85.332,149.336H202.66c5.891,0,10.672-4.781,10.672-10.672S208.551,128,202.66,128H85.332   c-5.898,0-10.672,4.773-10.672,10.664S79.434,149.336,85.332,149.336z" style="" fill="#14a9ee"></path><path d="M127.996,320c-29.453,0-53.336,23.875-53.336,53.344c0,17.438,8.383,32.938,21.336,42.656v53.344l32-10.688l32,10.688V416   c12.953-9.719,21.336-25.219,21.336-42.656C181.332,343.875,157.449,320,127.996,320z M138.66,439.734l-3.922-1.297l-6.742-2.25   l-6.75,2.25l-3.914,1.297v-14.141c3.445,0.703,7.008,1.062,10.664,1.062s7.219-0.359,10.664-1.062V439.734z M127.996,405.344   c-17.648,0-32-14.375-32-32c0-17.656,14.352-32,32-32s32,14.344,32,32C159.996,390.969,145.645,405.344,127.996,405.344z" style="" fill="#14a9ee"></path><path d="M501.34,128c0-23.57-19.109-42.672-42.688-42.672c-23.562,0-42.656,19.102-42.656,42.672v288h13.234l-13.234,46.219   l42.656,28.438l42.688-28.438L488.09,416h13.25V128z M437.34,128c0-11.766,9.562-21.336,21.312-21.336   c11.781,0,21.344,9.57,21.344,21.336v266.656H437.34V128z M476.527,453.125l-17.875,11.906l-17.859-11.906L451.418,416h14.484   L476.527,453.125z" style="" fill="#14a9ee"></path><path d="M127.996,362.656c-5.891,0-10.664,4.781-10.664,10.688c0,5.875,4.773,10.656,10.664,10.656s10.664-4.781,10.664-10.656   C138.66,367.438,133.887,362.656,127.996,362.656z" style="" fill="#14a9ee"></path></g></svg>