<svg xmlns="http://www.w3.org/2000/svg" xmlns:xlink="http://www.w3.org/1999/xlink" version="1.1" x="0px" y="0px" viewBox="0 0 100 100" style="enable-background:new 0 0 100 100;max-width:100%" xml:space="preserve" height="100%"><g style="" fill="#14a9ee"><path d="M45.80313,32.87692c-2.11581,0-4.06841-0.82784-5.65329-2.39798c-3.48833-3.45588-4.41842-9.42871-4.41842-12.41364   c0-0.86815,0.10815-1.7304,0.33428-2.63394c0.22417-0.90256,1.15229-1.45019,2.04108-1.22603   c0.90256,0.22613,1.45118,1.13951,1.22701,2.04207c-0.15928,0.63317-0.23596,1.22799-0.23596,1.8179   c0,3.29562,1.17588,7.79564,3.42147,10.02156c0.96745,0.95664,2.03912,1.42266,3.28186,1.42266c0.01376,0,0.0295,0,0.04523,0   c5.07322-0.04719,6.78001-7.87921,6.78001-11.44423c0-0.58991-0.07669-1.18473-0.23596-1.8179   c-0.22417-0.90256,0.32445-1.81594,1.22701-2.04207c0.89076-0.21925,1.81692,0.32445,2.04108,1.22603   c0.22613,0.90354,0.33428,1.76579,0.33428,2.63394c0,6.11145-3.13831,14.74673-10.11496,14.81064   C45.85229,32.87692,45.82673,32.87692,45.80313,32.87692z" style="" fill="#14a9ee"></path><path d="M43.97835,99.99966h-4.85102c-1.99782,0-3.624-1.60062-3.624-3.56698V44.15007c0-0.93009,0.75312-1.68419,1.6832-1.68419   c0.93009,0,1.68321,0.7541,1.68321,1.68419v52.28261c0,0.08456,0.09045,0.20057,0.25759,0.20057h4.85102   c0.09635,0,0.20057-0.10422,0.20057-0.20057v-25.3995c0-0.93008,0.75312-1.6832,1.68321-1.6832   c0.93009,0,1.6832,0.75312,1.6832,1.6832v25.3995C47.54533,98.39905,45.94471,99.99966,43.97835,99.99966z" style="" fill="#14a9ee"></path><path d="M19.6053,47.37491c-0.33625,0-0.67643-0.10127-0.97138-0.31069c-0.75902-0.5378-0.93795-1.58882-0.40114-2.34685   l3.76952-5.30918c0.25956-0.36574,0.65283-0.61252,1.0933-0.68626c0.44046-0.07275,0.89666,0.03146,1.25847,0.29102   l3.52962,2.52186c0.32642-0.41195,0.66266-0.85439,1.00874-1.3096c2.28098-3.0046,5.12237-6.74462,9.31072-7.05826   c1.2801-0.1111,2.22985-0.69216,2.95938-3.23565c0.25366-0.89371,1.18375-1.41381,2.08237-1.15524   c0.89273,0.25563,1.40988,1.18768,1.15425,2.08139c-0.37361,1.30665-1.51213,5.28263-5.92465,5.66607   c-2.69588,0.20253-4.92967,3.14323-6.90193,5.73883c-0.74328,0.97826-1.44528,1.90344-2.16496,2.68507   c-0.57614,0.62432-1.52196,0.72264-2.21806,0.23006l-3.4195-2.44321l-2.7883,3.92978   C20.65336,47.12714,20.13228,47.37491,19.6053,47.37491z" style="" fill="#14a9ee"></path><path d="M27.82665,54.73598c-1.76383,0-3.30545-0.68822-4.45774-1.99389l-5.04765-5.96398   c-0.59974-0.70985-0.51126-1.77267,0.1986-2.37241c0.70986-0.60072,1.76973-0.51322,2.3734,0.19762l5.02209,5.93645   c0.49159,0.55648,1.10706,0.8298,1.9113,0.8298c0.75508,0,1.35679-0.28512,1.83855-0.86913l6.2314-7.43187   c0.59974-0.71477,1.66354-0.80326,2.37143-0.20843c0.71379,0.59679,0.80621,1.65961,0.20844,2.37143l-6.22157,7.42007   C31.15177,53.9927,29.57475,54.73598,27.82665,54.73598z" style="" fill="#14a9ee"></path><path d="M20.06346,46.68963c-2.41076,0-4.43021-1.82183-4.69764-4.23751c-0.27136-2.40781,1.2978-4.618,3.6476-5.14007   c2.38323-0.53092,4.76843,0.7718,5.55104,3.03311c0.30479,0.87897-0.16124,1.83757-1.04021,2.14137   c-0.88093,0.30774-1.83855-0.16124-2.14137-1.0402c-0.22416-0.65283-0.91043-1.0117-1.63798-0.84652   c-0.67839,0.15042-1.11099,0.7718-1.03234,1.4787c0.08062,0.72067,0.6489,1.24274,1.35089,1.24274   c0.93009,0,1.6832,0.7541,1.6832,1.68419C21.74666,45.93553,20.99355,46.68963,20.06346,46.68963z" style="" fill="#14a9ee"></path><path d="M62.01579,49.71389c-0.93009,0-1.68321-0.75312-1.68321-1.6832v-6.44967c0-2.6595-2.16496-4.8225-4.82349-4.8225   c-0.93009,0-1.6832-0.7541-1.6832-1.68419s0.75312-1.68419,1.6832-1.68419c4.51674,0,8.1899,3.67415,8.1899,8.19088v6.44967   C63.69899,48.96078,62.94588,49.71389,62.01579,49.71389z" style="" fill="#14a9ee"></path><path d="M52.65394,99.99966H47.7459c-1.96636,0-3.56698-1.60062-3.56698-3.56698v-25.3995c0-0.93008,0.75312-1.6832,1.68321-1.6832   c0.93009,0,1.6832,0.75312,1.6832,1.6832v25.3995c0,0.09635,0.10422,0.20057,0.20057,0.20057h4.90804   c0.09635,0,0.20057-0.10422,0.20057-0.20057V44.15007c0-0.93009,0.75312-1.68419,1.6832-1.68419   c0.93009,0,1.68321,0.7541,1.68321,1.68419v52.28261C56.22092,98.39905,54.6203,99.99966,52.65394,99.99966z" style="" fill="#14a9ee"></path><path d="M60.01796,69.46207h-5.48025c-0.93009,0-1.6832-0.75311-1.6832-1.6832s0.75312-1.6832,1.6832-1.6832h5.48025   c0.15534,0,0.31462-0.15928,0.31462-0.31462V48.08771c0-0.93009,0.75312-1.68419,1.68321-1.68419   c0.93009,0,1.6832,0.7541,1.6832,1.68419v17.69333C63.69899,67.81033,62.04725,69.46207,60.01796,69.46207z" style="" fill="#14a9ee"></path><path d="M56.87769,75.68364h-2.33997c-0.93009,0-1.6832-0.75312-1.6832-1.68321c0-0.93008,0.75312-1.6832,1.6832-1.6832h2.33997   c0.80227,0,1.45707-0.62727,1.45707-1.39808v-3.14028c0-0.93009,0.75312-1.6832,1.6832-1.6832s1.6832,0.75311,1.6832,1.6832   v3.14028C61.70117,73.5462,59.53817,75.68364,56.87769,75.68364z" style="" fill="#14a9ee"></path><path d="M55.50909,36.75852c-6.021,0-7.06514-2.08139-8.06798-5.50876L47.331,30.87222   c-0.26349-0.89175,0.24383-1.82872,1.13655-2.09221c0.89273-0.26841,1.82872,0.24579,2.09221,1.13656l0.11405,0.38836   c0.76492,2.61428,0.90256,3.08522,4.83528,3.08522c0.93009,0,1.68321,0.7541,1.68321,1.68419S56.43919,36.75852,55.50909,36.75852z   " style="" fill="#14a9ee"></path><path d="M55.62315,17.58059c-0.15731,0-0.32052-0.02261-0.47979-0.06981c-6.04656-1.79627-12.46477-1.79726-18.56639,0.00098   c-0.9006,0.25956-1.82872-0.24776-2.09024-1.13951c-0.26349-0.89175,0.2458-1.82773,1.13852-2.09123   c6.72496-1.98209,13.80779-1.98111,20.47769,0.00098c0.89076,0.26546,1.40005,1.20243,1.13459,2.09417   C57.01926,17.10768,56.34873,17.58059,55.62315,17.58059z" style="" fill="#14a9ee"></path><path d="M58.41931,21.17608c-0.65283,0-1.2742-0.38246-1.54753-1.02054c-0.36574-0.85537,0.0295-1.84445,0.88486-2.21117   c1.93687-0.83079,2.80403-1.76973,2.80403-2.33309c0-1.50132-5.18923-4.42333-14.69855-4.42333s-14.69856,2.92201-14.69856,4.42333   c0,0.56336,0.86717,1.5023,2.80403,2.33309c0.85537,0.36673,1.25061,1.35581,0.88486,2.21117   c-0.36574,0.85537-1.35482,1.25159-2.21019,0.88388c-4.21588-1.80709-4.84512-4.17655-4.84512-5.42814   c0-5.11549,9.08656-7.79171,18.06497-7.79171s18.06496,2.67622,18.06496,7.79171c0,1.25159-0.62923,3.62106-4.84512,5.42814   C58.86568,21.13184,58.64151,21.17608,58.41931,21.17608z" style="" fill="#14a9ee"></path><path d="M55.04897,12.21537c-0.90256,0-1.64978-0.71576-1.68124-1.6252c-0.14158-4.04972-3.4372-7.22146-7.5056-7.22146   s-7.36403,3.17174-7.5056,7.22146c-0.03146,0.90944-0.77868,1.6252-1.68124,1.6252c-0.02163,0-0.04129-0.00098-0.06096-0.00098   c-0.92812-0.03244-1.65567-0.81211-1.62421-1.7422c0.2045-5.87156,4.9808-10.47186,10.87202-10.47186   s10.66751,4.6003,10.87201,10.47186c0.03146,0.93009-0.69609,1.70975-1.62421,1.7422   C55.09026,12.21439,55.0706,12.21537,55.04897,12.21537z" style="" fill="#14a9ee"></path><path d="M18.40778,99.99966c-0.93009,0-1.68321-0.75311-1.68321-1.6832V51.45609c0-0.93009,0.75312-1.68321,1.68321-1.68321   s1.68321,0.75312,1.68321,1.68321v46.86037C20.09099,99.24655,19.33787,99.99966,18.40778,99.99966z" style="" fill="#14a9ee"></path><path d="M18.40778,40.64012c-0.93009,0-1.68321-0.7541-1.68321-1.68419V17.6091c0-0.93009,0.75312-1.68419,1.68321-1.68419   s1.68321,0.7541,1.68321,1.68419v21.34682C20.09099,39.88602,19.33787,40.64012,18.40778,40.64012z" style="" fill="#14a9ee"></path><path d="M1.68387,26.19916c-0.6607,0-1.28797-0.39229-1.55539-1.04119c-0.35591-0.86028,0.05309-1.84445,0.91239-2.19938   l16.72391-6.90586c0.85537-0.35689,1.84248,0.05408,2.19839,0.91337c0.35591,0.86028-0.05309,1.84445-0.91239,2.19938   L2.32687,26.07134C2.11647,26.15786,1.89821,26.19916,1.68387,26.19916z" style="" fill="#14a9ee"></path><path d="M18.40778,33.106c-0.21433,0-0.4326-0.04129-0.643-0.12782L1.04087,26.07134   c-0.8593-0.35493-1.2683-1.34008-0.91239-2.19938c0.35395-0.8593,1.33713-1.26732,2.19839-0.91338l16.72391,6.90685   c0.8593,0.35493,1.2683,1.34008,0.91239,2.19938C19.69575,32.71371,19.06848,33.106,18.40778,33.106z" style="" fill="#14a9ee"></path><path d="M93.46381,99.99966H73.54457c-0.93009,0-1.68321-0.75311-1.68321-1.6832v-7.307c0-0.93009,0.75312-1.6832,1.68321-1.6832   h19.91924c0.93009,0,1.6832,0.75311,1.6832,1.6832v7.307C95.14702,99.24655,94.39391,99.99966,93.46381,99.99966z    M75.22778,96.63326h16.55283v-3.94059H75.22778V96.63326z" style="" fill="#14a9ee"></path><path d="M83.53368,92.69267c-0.93008,0-1.6832-0.75311-1.6832-1.6832V41.2959c0-0.93009,0.75312-1.68419,1.6832-1.68419   c0.93009,0,1.6832,0.7541,1.6832,1.68419v49.71356C85.21689,91.93955,84.46378,92.69267,83.53368,92.69267z" style="" fill="#14a9ee"></path><path d="M92.7225,42.98009H72.6892c-0.93009,0-1.6832-0.7541-1.6832-1.68419V31.02166c0-0.93009,0.75311-1.68419,1.6832-1.68419   H92.7225c0.4208,0,0.82784,0.15829,1.13852,0.4444l5.5943,5.13712C99.80337,35.23754,100,35.68685,100,36.15878   s-0.19663,0.92124-0.54469,1.23979l-5.5943,5.13712C93.55033,42.8218,93.1433,42.98009,92.7225,42.98009z M74.37241,39.61171   h17.69332l3.76165-3.45293l-3.76165-3.45293H74.37241V39.61171z" style="" fill="#14a9ee"></path><path d="M83.53368,17.35249c-0.93008,0-1.6832-0.7541-1.6832-1.68419v-4.6239c0-0.93009,0.75312-1.68419,1.6832-1.68419   c0.93009,0,1.6832,0.7541,1.6832,1.68419v4.6239C85.21689,16.59839,84.46378,17.35249,83.53368,17.35249z" style="" fill="#14a9ee"></path><path d="M94.37817,27.62575H74.34291c-0.42277,0-0.82784-0.15829-1.13853-0.4444l-5.59233-5.13614   c-0.34805-0.31855-0.54469-0.76786-0.54469-1.23979c0-0.47094,0.19664-0.92124,0.54469-1.23979l5.59233-5.13712   c0.31068-0.28611,0.71576-0.4444,1.13853-0.4444h20.03526c0.93008,0,1.6832,0.7541,1.6832,1.68419v10.27326   C96.06138,26.87165,95.30826,27.62575,94.37817,27.62575z M74.99967,24.25737h17.6953v-6.90488h-17.6953l-3.75968,3.45293   L74.99967,24.25737z" style="" fill="#14a9ee"></path></g></svg>